<?xml version="1.0" standalone="no"?><!DOCTYPE svg PUBLIC "-//W3C//DTD SVG 1.1//EN" "http://www.w3.org/Graphics/SVG/1.1/DTD/svg11.dtd"><svg t="1560695026260" class="icon" style="" viewBox="0 0 1024 1024" version="1.1" xmlns="http://www.w3.org/2000/svg" p-id="4748" xmlns:xlink="http://www.w3.org/1999/xlink" width="16" height="16"><defs><style type="text/css"></style></defs><path d="M232.727273 0h558.545454c128.535273 0 232.727273 104.192 232.727273 232.727273v558.545454c0 128.535273-104.192 232.727273-232.727273 232.727273H232.727273C104.192 1024 0 919.808 0 791.272727V232.727273C0 104.192 104.192 0 232.727273 0z m288.325818 746.938182s-8.448 62.394182 28.951273 32.023273a655.592727 655.592727 0 0 0 101.329454-102.865455c3.630545 12.334545 8.052364 24.040727 13.265455 35.141818 3.630545 9.425455 8.052364 18.245818 13.265454 26.461091 4.840727 8.215273 10.658909 15.825455 17.501091 22.784 10.053818 9.029818 21.922909 13.544727 35.607273 13.544727a39.796364 39.796364 0 0 0 32.558545-17.221818c5.632-8.238545 9.844364-17.268364 12.660364-27.112727 2.816-9.844364 5.026909-20.317091 6.632727-31.418182 3.630545-25.856 8.448-78.196364 8.448-78.196364s-33.978182-30.184727-35.607272-8.005818c-1.582545 22.155636-3.607273 43.915636-6.004364 65.28-1.629091 13.963636-4.421818 27.298909-8.448 40.029091-2.420364 5.748364-6.446545 9.239273-12.078546 10.472727a17.617455 17.617455 0 0 1-14.475636-6.795636 147.316364 147.316364 0 0 1-13.265454-26.461091 357.818182 357.818182 0 0 1-21.108364-61.579636 532.968727 532.968727 0 0 0 43.426909-90.530909c14.08-39.819636 32.581818-122.554182 32.581818-122.554182s-32.372364-37.981091-38.004363-6.772364a737.093818 737.093818 0 0 1-22.923637 92.392728 462.126545 462.126545 0 0 1-27.136 68.95709 2052.794182 2052.794182 0 0 1-21.713454-211.223272h130.280727v-41.890909h-50.664727l25.320727-19.688728a1531.950545 1531.950545 0 0 0-59.694546-65.908363l-27.764363 22.178909c18.501818 20.945455 36.794182 42.077091 54.900363 63.418182h-74.798545L639.278545 232.727273h-40.424727c1.210182 29.975273 2.606545 59.531636 4.235637 88.669091h-214.132364v258.653091a354.466909 354.466909 0 0 1-16.290909 102.842181c-9.239273 28.741818-22.109091 55.831273-38.609455 81.291637L373.294545 791.272727a362.263273 362.263273 0 0 0 38.609455-94.231272c10.845091-38.167273 16.686545-77.172364 17.477818-116.992V363.287273h176.128c2.420364 46.778182 6.237091 93.393455 11.473455 139.776 4.817455 41.890909 11.869091 83.153455 21.108363 123.787636a459.636364 459.636364 0 0 1-54.900363 66.513455v-171.194182h-123.042909v175.476363h118.225454c-18.106182 18.082909-57.297455 49.291636-57.297454 49.291637z m-177.943273-247.552l-42.821818-8.005818A6090.798545 6090.798545 0 0 1 232.727273 736.465455l44.637091 10.472727 65.745454-247.552z m-95.906909-229.701818a2709.853091 2709.853091 0 0 1 63.325091 164.421818l42.24-15.406546a11446.341818 11446.341818 0 0 0-65.163636-163.188363l-40.401455 14.173091z m207.499636 157.649454v40.029091h137.541819v-40.029091h-137.541819z m39.191273 134.865455h54.900364v96.046545h-54.900364v-96.046545z" p-id="4749" fill="#d81e06"></path></svg>