<?xml version="1.0" standalone="no"?><!DOCTYPE svg PUBLIC "-//W3C//DTD SVG 1.1//EN" "http://www.w3.org/Graphics/SVG/1.1/DTD/svg11.dtd"><svg t="1564815371205" class="icon" viewBox="0 0 1024 1024" version="1.1" xmlns="http://www.w3.org/2000/svg" p-id="13546" width="16" height="16" xmlns:xlink="http://www.w3.org/1999/xlink"><defs><style type="text/css"></style></defs><path d="M238.933 375.467c0 37.702 30.564 68.267 68.267 68.267s68.267-30.564 68.267-68.267c0-37.702-30.564-68.267-68.267-68.267-37.702 0-68.267 30.564-68.267 68.267zM864.734 921.6h-705.468c-68.983 0-125.133-56.149-125.133-125.133v-568.934c0-68.983 56.149-125.133 125.133-125.133h705.468c68.983 0 125.133 56.149 125.133 125.133v568.934c0 68.983-56.149 125.133-125.133 125.133zM159.266 170.667c-31.334 0-56.866 25.532-56.866 56.866v568.934c0 31.369 25.532 56.866 56.866 56.866h705.468c31.369 0 56.866-25.498 56.866-56.866v-568.934c0-31.334-25.498-56.866-56.866-56.866h-705.468zM204.8 786.125c-3.345 0-6.758-0.512-10.138-1.57-17.988-5.598-28.058-24.678-22.46-42.667 2.526-8.124 64.171-199.305 195.379-195.891 37.342 0.922 68.608 10.342 98.85 19.456 38.844 11.674 72.431 21.743 116.941 14.643 21.811-3.516 30.822-25.429 46.217-74.65 20.309-64.887 50.995-162.918 186.3-162.918 18.876 0 34.133 15.292 34.133 34.133s-15.258 34.133-34.133 34.133c-81.033 0-98.85 43.725-121.173 115.063-15.462 49.493-34.782 111.104-100.557 121.617-60.041 9.557-106.428-4.403-147.422-16.657-27.102-8.158-52.736-15.872-80.93-16.555-0.512-0.034-1.024-0.034-1.536-0.034-66.15 0-114.005 106.53-126.942 147.9-4.506 14.609-17.988 23.996-32.529 23.996z" p-id="13547" fill="#cdcdcd"></path></svg>