<?xml version="1.0" standalone="no"?><!DOCTYPE svg PUBLIC "-//W3C//DTD SVG 1.1//EN" "http://www.w3.org/Graphics/SVG/1.1/DTD/svg11.dtd"><svg t="1560701971967" class="icon" style="" viewBox="0 0 1024 1024" version="1.1" xmlns="http://www.w3.org/2000/svg" p-id="2199" xmlns:xlink="http://www.w3.org/1999/xlink" width="16" height="16"><defs><style type="text/css"></style></defs><path d="M765.386 928H259.557c-54.608 0-99.036-44.428-99.036-99.036V246.126c0-54.609 44.427-99.036 99.036-99.036h505.829c54.608 0 99.036 44.427 99.036 99.036v582.838c0 54.608-44.428 99.036-99.036 99.036zM259.557 207.09c-21.524 0-39.036 17.512-39.036 39.036v582.838c0 21.524 17.511 39.036 39.036 39.036h505.829c21.524 0 39.036-17.512 39.036-39.036V246.126c0-21.524-17.512-39.036-39.036-39.036H259.557z" fill="#108ee9" p-id="2200"></path><path d="M323.071 225.952v-97.725c0-16.569 13.431-30 30-30 16.569 0 30 13.431 30 30v97.725c0 16.569-13.431 30-30 30-16.568 0-30-13.431-30-30zM695.994 448.051H328.006c-16.569 0-30-13.431-30-30 0-16.569 13.431-30 30-30h367.988c16.569 0 30 13.431 30 30 0 16.569-13.432 30-30 30zM695.994 606.046H328.006c-16.569 0-30-13.431-30-30 0-16.569 13.431-30 30-30h367.988c16.569 0 30 13.431 30 30 0 16.569-13.432 30-30 30zM695.994 752.7H328.006c-16.569 0-30-13.431-30-30 0-16.568 13.431-30 30-30h367.988c16.569 0 30 13.431 30 30 0 16.568-13.432 30-30 30zM642.13 225.952v-97.725c0-16.569 13.431-30 30-30 16.569 0 30 13.431 30 30v97.725c0 16.569-13.431 30-30 30-16.568 0-30-13.431-30-30z" fill="#108ee9" p-id="2201"></path></svg>