<?xml version="1.0" standalone="no"?><!DOCTYPE svg PUBLIC "-//W3C//DTD SVG 1.1//EN" "http://www.w3.org/Graphics/SVG/1.1/DTD/svg11.dtd"><svg t="1560592871406" class="icon" style="" viewBox="0 0 1024 1024" version="1.1" xmlns="http://www.w3.org/2000/svg" p-id="9540" xmlns:xlink="http://www.w3.org/1999/xlink" width="64" height="64"><defs><style type="text/css"></style></defs><path d="M987.60151 171.73227c-8.18645-15.624862-27.623128-21.811772-43.184545-13.437034-2.438539 1.311879-4.219091 3.25002-6.187933 4.999874-1.469468 1.062192-3.155876 1.686409-4.498454 3.000334l-164.087149 163.990958-75.995835-75.995835 164.086126-163.991981c2.499937-2.499937 4.124947-5.499248 5.624091-8.43716 0.593518-0.937348 1.500167-1.500167 2.000564-2.498914 8.15575-15.687284 2.092661-34.998095-13.5629-43.185568-45.308929-23.624047-96.432283-36.123732-147.804301-36.123732-176.428222 0-319.983755 143.555533-319.983755 319.983755 0 32.435737 6.281053 63.059198 15.281031 92.558046l-163.398464 163.491585c-0.156566 0.124843-0.187265 0.37453-0.343831 0.499373-2.562359-0.124843-4.999874-0.499373-7.623631-0.562818-1.312902 0-2.594081 0-3.906983 0-121.711016 0-221.831294 97.93245-223.955678 220.051765-2.156106 123.493615 96.556103 225.738277 220.050742 227.925083 1.311879 0 2.594081 0 3.904936 0 121.713063 0 221.833341-97.93245 223.957725-220.050742 0.124843-6.687306-0.813528-13.187347-1.281179-19.811208l160.679539-160.679539c30.68486 9.81146 62.715367 16.562211 96.620571 16.562211 176.428222 0 319.982732-143.555533 319.982732-319.983755C1023.974929 268.414239 1011.3811 217.167065 987.60151 171.73227zM401.069003 739.26505c-1.656733 1.686409-2.53166 3.749394-3.718695 5.624091-10.686387 6.500041-16.999163 18.937305-14.998599 32.123628 1.249457 8.375761 1.780553 17.061584 1.62501 25.811876-1.50119 88.183412-74.559113 157.679205-162.741501 157.179832-88.214111-1.562589-158.710698-74.621535-157.179832-162.803923 1.499144-88.183412 74.464969-157.805072 162.52149-157.179832 6.437619 0.124843 12.843516 0.624217 19.092847 1.436722 14.374382 2.37407 27.249621-5.999644 32.967856-18.561751 0.843204-0.687662 1.906419-1.000793 2.687202-1.812275l145.023978-145.054677c28.155247 49.871851 68.746734 91.056855 118.213355 119.80562L401.069003 739.26505zM703.991174 576.023152c-141.150764 0-255.987209-114.805746-255.987209-255.986185s114.837468-255.986185 255.987209-255.986185c26.247804 0 52.246945 4.498454 77.119425 12.373819l-155.334811 155.242713c-5.999644 5.998621-9.375531 14.123672-9.375531 22.623253 0 8.499581 3.375887 16.623609 9.375531 22.623253l121.243365 121.243365c6.249331 6.249331 14.435781 9.374508 22.62223 9.374508 8.188496 0 16.374946-3.125177 22.624277-9.374508l155.366533-155.305135c7.843642 24.874527 12.344143 50.934043 12.344143 77.183893C959.977359 461.216383 845.139891 576.023152 703.991174 576.023152z" p-id="9541"></path><path d="M224.014518 707.766662c-52.996005 0-95.995331 42.934858-95.995331 95.995331s42.999326 95.995331 95.995331 95.995331c52.998051 0 95.995331-42.934858 95.995331-95.995331S277.012569 707.766662 224.014518 707.766662zM224.014518 867.757516c-35.279504 0-63.996546-28.685319-63.996546-63.996546 0-35.310204 28.717042-63.996546 63.996546-63.996546 35.280528 0 63.996546 28.686343 63.996546 63.996546C288.011064 839.072197 259.295046 867.757516 224.014518 867.757516z" p-id="9542"></path></svg>