<?xml version="1.0" standalone="no"?><!DOCTYPE svg PUBLIC "-//W3C//DTD SVG 1.1//EN" "http://www.w3.org/Graphics/SVG/1.1/DTD/svg11.dtd"><svg t="1560592501426" class="icon" style="" viewBox="0 0 1024 1024" version="1.1" xmlns="http://www.w3.org/2000/svg" p-id="2755" xmlns:xlink="http://www.w3.org/1999/xlink" width="64" height="64"><defs><style type="text/css"></style></defs><path d="M139.080597 215.498507h745.838806v808.501493H139.080597z" fill="#4E8FFF" p-id="2756"></path><path d="M649.246567 614.705672a194.101493 194.101493 0 1 0 0 274.493134 193.459582 193.459582 0 0 0 0-274.493134z m-253.065552 21.397015a163.84 163.84 0 0 1 207.551045-19.868657L376.312358 843.653731a163.84 163.84 0 0 1 19.868657-207.551044z m231.622686 231.653253a163.824716 163.824716 0 0 1-207.551044 19.868657L647.657075 660.250746a164.023403 164.023403 0 0 1-19.853374 207.505194z" fill="#FFCA3E" p-id="2757"></path><path d="M162.00597 96.286567h699.98806v296.501493H162.00597z" fill="#4E8FFF" p-id="2758"></path><path d="M255.235821 157.420896l85.58806 0 0 229.253731-85.58806 0 0-229.253731Z" fill="#EFEFEF" p-id="2759"></path><path d="M362.220896 157.420896l85.588059 0 0 229.253731-85.588059 0 0-229.253731Z" fill="#EFEFEF" p-id="2760"></path><path d="M542.567164 0h-61.134328a12.226866 12.226866 0 0 0-12.226866 12.226866v217.026865h85.58806V12.226866a12.226866 12.226866 0 0 0-12.226866-12.226866zM469.20597 461.564179a12.226866 12.226866 0 0 0 12.226866 12.226866h61.134328a12.226866 12.226866 0 0 0 12.226866-12.226866V244.537313h-85.58806zM649.552239 68.776119h-61.134329a12.226866 12.226866 0 0 0-12.226865 12.226866v217.026866h85.588059V81.002985a12.226866 12.226866 0 0 0-12.226865-12.226866zM576.191045 463.092537a12.226866 12.226866 0 0 0 12.226865 12.226866h61.134329a12.226866 12.226866 0 0 0 12.226865-12.226866v-149.779104h-85.588059z" fill="#EFEFEF" p-id="2761"></path><path d="M683.176119 157.420896l85.58806 0 0 229.253731-85.58806 0 0-229.253731Z" fill="#EFEFEF" p-id="2762"></path><path d="M814.614925 207.856716l-33.62388 142.137314H246.065672l-33.623881-142.137314H139.080597v272.047762h745.838806V207.856716h-70.304478z" fill="#C0EDFF" p-id="2763"></path></svg>