<?xml version="1.0" standalone="no"?><!DOCTYPE svg PUBLIC "-//W3C//DTD SVG 1.1//EN" "http://www.w3.org/Graphics/SVG/1.1/DTD/svg11.dtd"><svg t="1560592712614" class="icon" style="" viewBox="0 0 1024 1024" version="1.1" xmlns="http://www.w3.org/2000/svg" p-id="6431" xmlns:xlink="http://www.w3.org/1999/xlink" width="64" height="64"><defs><style type="text/css"></style></defs><path d="M365.91 219.57L887.08 197l-0.72 651.07S764 983.45 462.33 915l-96.43-51.9z" fill="#FFFFFF" p-id="6432"></path><path d="M865.82 175.95h42.52v665.04h-42.52z" fill="#26251E" p-id="6433"></path><path d="M286.1 230.23l93.59-85c-8.94 9.63-13.78 20-13.78 30.69V841l-163.23 92.42L157.19 632s108.9 32.94 143.16-148.47-14.25-253.3-14.25-253.3z" fill="#FFFFFF" p-id="6434"></path><path d="M626.49 80.58c143.92 0 260.59 42.69 260.59 95.36s-116.67 95.37-260.59 95.37S365.92 228.62 365.91 176c0-10.74 4.84-21.06 13.78-30.69h0.06C414.69 107.62 512 80.58 626.49 80.58z m57.61 95.36c0-11.64-25.79-21.08-57.61-21.08s-57.61 9.44-57.61 21.08S594.67 197 626.49 197s57.61-9.41 57.61-21.06z" fill="#FFD72E" p-id="6435"></path><path d="M626.49 154.86c31.82 0 57.61 9.44 57.61 21.08S658.31 197 626.49 197s-57.61-9.44-57.61-21.09 25.79-21.05 57.61-21.05z" fill="#26251E" p-id="6436"></path><path d="M286.1 230.23s48.52 71.87 14.26 253.28S157.19 632 157.19 632z" fill="#FFD72E" p-id="6437"></path><path d="M344.65 175.95h42.52v665.04h-42.52z" fill="#26251E" p-id="6438"></path><path d="M626.49 292.57c-72 0-140.06-10.38-191.56-29.23-26.36-9.65-47.37-21.15-62.45-34.2-12.69-11-27.83-29.13-27.83-53.19 0-16.06 6.55-31.25 19.46-45.17l31.17 28.92c-5.38 5.8-8.11 11.26-8.11 16.23 0 15 24.49 33.61 62.38 47.48 46.93 17.18 109.78 26.64 176.95 26.64s130-9.46 177-26.64c37.89-13.87 62.37-32.5 62.37-47.47s-24.48-33.6-62.37-47.47c-46.94-17.18-109.78-26.64-177-26.64-53.68 0-104.77 6.05-147.74 17.5-53.12 14.15-75.07 31.35-83.43 40.34l-31.14-29c40.33-43.38 143.3-71.41 262.31-71.41 72 0 140.07 10.38 191.57 29.23 26.36 9.65 47.37 21.15 62.45 34.2 12.7 11 27.83 29.13 27.83 53.2s-15.13 42.21-27.83 53.2c-15.08 13-36.09 24.56-62.45 34.2-51.51 18.9-119.54 29.28-191.58 29.28zM626.49 957.62c-72 0-140.07-10.38-191.57-29.23-26.36-9.65-47.37-21.16-62.45-34.2-12.69-11-27.83-29.13-27.83-53.2h42.52c0 15 24.48 33.61 62.37 47.47 46.94 17.18 109.78 26.64 177 26.64s130-9.46 177-26.64c37.89-13.87 62.37-32.5 62.37-47.47h42.52c0 24.07-15.13 42.21-27.83 53.2-15.08 13-36.09 24.56-62.45 34.2-51.58 18.85-119.61 29.23-191.65 29.23z" fill="#26251E" p-id="6439"></path><path d="M202.68 954.68a21.26 21.26 0 0 1-21-18.09l-45.51-301.44a21.24 21.24 0 0 1 7.06-19.47 20.87 20.87 0 0 1 20-4.08c2.17 0.57 26.35 6.44 52.38-9.76 30.2-18.79 52.27-61.07 63.83-122.27 9.19-48.66 17.76-119.93 6.41-183.08-6.45-35.89-16.57-53-17.47-54.47-6.14-8.76-4.53-20.33 3.4-27.53l93.59-85a21.26 21.26 0 0 1 4.39-3.07l9.81 18.58 15.21 15.21-0.89 0.66 0.09 0.1-81.64 74.12c4.65 10.89 10.27 27.25 14.6 49.7 10.92 56.58 9 124.76-5.7 202.64-14.16 75-42.54 125.86-84.34 151.21a115 115 0 0 1-54.68 16.72l36.86 244.31 136.34-77.21 21 37-163.27 92.46a21.25 21.25 0 0 1-10.47 2.76z" fill="#26251E" p-id="6440"></path><path d="M136.946 625.489l128.908-401.745 40.487 12.99L177.432 638.48z" fill="#26251E" p-id="6441"></path></svg>