<?xml version="1.0" standalone="no"?><!DOCTYPE svg PUBLIC "-//W3C//DTD SVG 1.1//EN" "http://www.w3.org/Graphics/SVG/1.1/DTD/svg11.dtd"><svg t="1560592698995" class="icon" style="" viewBox="0 0 1024 1024" version="1.1" xmlns="http://www.w3.org/2000/svg" p-id="6264" xmlns:xlink="http://www.w3.org/1999/xlink" width="64" height="64"><defs><style type="text/css"></style></defs><path d="M926.5 505.9c-1.9-2.9-5.1-4.7-8.5-4.7H704.8v-80.9c0-1.6-0.4-3.2-1.1-4.6L653.4 318v-59.7c0-5.6-4.5-10.1-10.1-10.1H564l-42.2-82v-59.7c0-5.6-4.5-10.1-10.1-10.1h-120c-5.6 0-10.1 4.5-10.1 10.1v59.7L349.1 229l-36-52.3v-58.1c0-5.6-4.5-10.1-10.1-10.1H144.7c-5.6 0-10.1 4.5-10.1 10.1v58.1l-66 95.8c-1.2 1.7-1.8 3.7-1.8 5.7v638c0 5.6 4.5 10.1 10.1 10.1h841c5.1 0 9.4-3.8 10-8.9 1.2-10.4 30.4-254.2 30.4-306.6 0.1-54.6-30.5-102.9-31.8-104.9zM633.1 310.4h-99.8v-42h99.8v42zM401.7 116.6h99.8v42h-99.8v-42z m-246.8 12.1h138v41h-138v-41zM87.1 281.4l63-91.4h147.6l41 59.4-7.5 14.5c-0.7 1.4-1.1 3-1.1 4.6v637.6h-243V281.4zM350.2 271l47.5-92.2h107.7l35.8 69.4h-18c-5.6 0-10.1 4.5-10.1 10.1V318l-50.3 97.7c-0.7 1.4-1.1 3-1.1 4.6v485.8H350.2V271z m131.6 151.8l47.5-92.2H637l47.5 92.2v78.4h-94.2c-3 0-5.9 1.3-7.8 3.7l-41 49.6c-2.2 2.7-2.9 6.3-1.8 9.6 9.3 27.9 24 76.9 24 89.9 0 33.6-15.6 209.8-19.4 252.1h-62.5V422.8z m427.1 483.3H564.6c4.1-46 19.3-217.6 19.3-252.1 0-18-17.3-72.7-23.2-91l34.4-41.6h317.1c7.2 12.7 26 49.8 26 89.4 0 45.7-23.9 250-29.3 295.3z" fill="#4F5953" p-id="6265"></path></svg>