<?xml version="1.0" standalone="no"?><!DOCTYPE svg PUBLIC "-//W3C//DTD SVG 1.1//EN" "http://www.w3.org/Graphics/SVG/1.1/DTD/svg11.dtd"><svg t="1561182566220" class="icon" viewBox="0 0 1024 1024" version="1.1" xmlns="http://www.w3.org/2000/svg" p-id="2341" xmlns:xlink="http://www.w3.org/1999/xlink" width="32" height="32"><defs><style type="text/css"></style></defs><path d="M639.09888 587.79136l0 41.37472L494.39232 629.16608l0 124.01664L453.0176 753.18272l0-124.01664L308.30592 629.16608l0-41.37472L453.0176 587.79136 453.0176 525.7216 308.30592 525.7216l0-41.37984L453.0176 484.34176l0-32.91136-0.12288 0.12288L308.79232 308.05504l29.28128-29.27616 135.75168 135.14752 134.54848-134.42048 28.90752 28.91264L494.39232 451.31264l0 33.02912 144.70656 0 0 41.37984L494.39232 525.7216l0 62.06976L639.09888 587.79136 639.09888 587.79136 639.09888 587.79136M907.93984 592.74752 804.736 490.752l29.28128-29.1584 52.75648 51.7888c-6.66112-222.62272-188.7488-401.20832-412.94848-401.20832-228.4288 0-413.54752 185.11872-413.54752 413.54752s185.11872 413.54752 413.54752 413.54752c144.34304 0 271.38048-74.04544 345.30816-186.0864l48.52224 0c-78.63808 136.00256-225.52576 227.46624-393.94304 227.46624-251.30496 0-454.93248-203.62752-454.93248-454.92736 0-251.30496 203.62752-454.93248 454.93248-454.93248 247.30624 0 448.14848 197.5808 454.31808 443.43296l52.6336-52.6336 29.28128 29.28128L907.93984 592.74752 907.93984 592.74752 907.93984 592.74752M907.93984 592.74752 907.93984 592.74752z" p-id="2342"></path></svg>