<?xml version="1.0" standalone="no"?><!DOCTYPE svg PUBLIC "-//W3C//DTD SVG 1.1//EN" "http://www.w3.org/Graphics/SVG/1.1/DTD/svg11.dtd"><svg t="1560592619762" class="icon" style="" viewBox="0 0 1024 1024" version="1.1" xmlns="http://www.w3.org/2000/svg" p-id="3779" xmlns:xlink="http://www.w3.org/1999/xlink" width="64" height="64"><defs><style type="text/css"></style></defs><path d="M739.2 177.5s-21.5 43 21.5 86c40.6 40.6 215.5 100.4 180.3 306.3l-47.6 156.5c-59.4 147-135.7 203.4-240.2 203.4h-89.1-64.5c-129 0-214.9-86-279.4-322.4s129-300.9 171.9-343.9c43-43 21.5-86 21.5-86" fill="#FFF5C5" p-id="3780"></path><path d="M576.7 920H412c-154 0-249-107.5-317.7-359.6-13.8-50.7-17.9-98-12-140.8 5.1-37.2 17.8-71.9 37.9-103.2 36.1-56.3 88.5-91 126.7-116.3 15.8-10.5 29.5-19.5 36.7-26.8 35.5-35.5 20.1-69.5 19.5-71l0.1 0.2 33.3-16.6c0.8 1.6 7.7 16.1 7.7 37.1 0 19.3-5.9 48.2-34.3 76.6-9.9 9.9-25 19.9-42.5 31.5-75.7 50.1-190 125.9-137.2 319.4 33.4 122.5 72.6 207.8 119.9 260.6 43.7 48.9 95.2 71.6 162 71.6h164.7c109.9 0 181.9-61.8 240.4-206.7 3.9-9.5 14.7-14.1 24.2-10.3 9.5 3.9 14.1 14.7 10.3 24.2C819 771 781 828.4 735.5 865.8c-44.4 36.5-96.4 54.2-158.8 54.2zM885.5 533.7c-1 0-2.1-0.1-3.2-0.3-10.1-1.7-16.9-11.3-15.2-21.5 28.3-165.5-76.5-234.9-145.8-280.8-17.5-11.6-32.6-21.6-42.5-31.5-28.3-28.3-34.3-57.3-34.3-76.6 0-21.1 6.9-35.6 7.7-37.1l33.3 16.6 0.1-0.2c-0.7 1.4-16 35.4 19.5 71 7.2 7.2 20.9 16.3 36.7 26.8 35.2 23.3 83.4 55.3 119.1 105 19.8 27.6 33.6 58.1 41.1 90.5 8.7 37.4 9.3 78.6 1.8 122.6-1.5 9.1-9.4 15.5-18.3 15.5z" fill="#E22B60" p-id="3781"></path><path d="M491.3 218.5c-22.5 0-45.4-1.4-68.4-4.2-69.9-8.6-116.8-27.2-118.7-28-9.5-3.8-14.2-14.7-10.4-24.2 3.8-9.5 14.7-14.2 24.2-10.4 0.9 0.3 45.5 17.8 110.6 25.7 59.7 7.2 149.3 7.6 237.7-31.6 9.4-4.2 20.4 0.1 24.6 9.5 4.2 9.4-0.1 20.4-9.5 24.6-42.7 19-89.2 31.1-138 36.1-17.1 1.6-34.5 2.5-52.1 2.5zM494.4 781.4c-9.2 0-18.5-3.5-25.5-10.5L277.1 579.1c-14.1-14.1-14.1-36.9 0-51l191.8-191.8c14.1-14.1 36.9-14.1 51 0l191.8 191.8c14.1 14.1 14.1 36.9 0 51L519.9 770.9c-7.1 7-16.3 10.5-25.5 10.5z m0-427.7c-2.2 0-4.2 0.8-5.8 2.4L296.8 547.8c-3.1 3.1-3.1 8.4 0 11.5l191.8 191.8c1.5 1.5 3.6 2.4 5.8 2.4 2.2 0 4.2-0.8 5.8-2.4L692 559.3c1.5-1.5 2.4-3.6 2.4-5.8 0-2.2-0.8-4.2-2.4-5.8L500.1 356.1c-1.5-1.5-3.5-2.4-5.7-2.4z" fill="#E22B60" p-id="3782"></path><path d="M393.3 509.6c8.2 1.3 18.9 4.4 32.1 9.4 2.5 0.6 4.1 2.8 4.7 6.6 0.6 5.7-0.3 12.6-2.8 20.8-3.8 4.4-7.2 3.8-10.4-1.9-6.3-12.6-14.8-23-25.5-31.2-1.3-1.3-1.6-2.2-0.9-2.8 0.6-1.2 1.6-1.6 2.8-0.9z m68 22.6c-3.2 8.8-7.9 22.4-14.2 40.6-11.3 31.5-20.5 56.3-27.4 74.6-5 6.3-9.4 6.3-13.2 0-0.6-10.7-4.4-19.5-11.3-26.4-1.3-1.9-1.9-3.1-1.9-3.8 0-0.6 0.9-0.9 2.8-0.9h10.4c4.4 0 7.2-1.6 8.5-4.7 10.7-17.6 25.2-44.7 43.4-81.2 1.3-1.3 2.2-1.9 2.8-1.9 0.7 0.6 0.7 1.8 0.1 3.7z m-42.5-77.4c12.6 3.2 21.7 6.3 27.4 9.4 2.5 0.6 4.1 2.5 4.7 5.7 0 6.9-2.2 13.2-6.6 18.9-2.5 3.8-5 3.8-7.6 0-4.4-10.7-11-20.4-19.8-29.3-1.9-2.5-2.5-4.1-1.9-4.7 0-0.6 1.3-0.6 3.8 0z m66.1 196.4c0 3.1-0.6 5-1.9 5.7-0.6 0.6-1.9 0.3-3.8-0.9-2.5-1.3-5.7-3.8-9.4-7.6-1.9-1.9-2.2-4.7-0.9-8.5 0-0.6 0.3-1.9 0.9-3.8 1.3-5.7 1.9-12 1.9-18.9v-85c-0.6-11.3-1.9-18.6-3.8-21.7-1.3-1.9-1.3-3.1 0-3.8 1.3-0.6 2.8-0.3 4.7 0.9 1.9 1.3 4.7 2.8 8.5 4.7 0.6 1.3 1.3 1.9 1.9 1.9 2.5 0 6.3-0.3 11.3-0.9h11.3v-17c-0.6-7.6-2.2-13.5-4.7-17.9-10.7 0.6-19.5 1.6-26.4 2.8-2.5 0.6-4.4 0.3-5.7-0.9-2.5-3.1-5-6.6-7.6-10.4-0.6-0.6-0.6-1.3 0-1.9 0-0.6 0.9-0.9 2.8-0.9 3.1 0.6 8.8 0.9 17 0.9 32.1-1.3 57.9-3.1 77.4-5.7 7.6-0.6 13.5-2.2 17.9-4.7 2.5-1.3 4.7-0.9 6.6 0.9 3.1 1.9 6 4.4 8.5 7.6 1.9 1.9 2.5 3.5 1.9 4.7-0.6 1.3-2.2 1.9-4.7 1.9-8.8 0-25.2 0.6-49.1 1.9h-3.8c3.8 2.5 7.9 5 12.3 7.6 1.3 1.3 1.3 2.8 0 4.7-1.3 3.8-1.9 8.2-1.9 13.2-0.6 3.8-0.9 6.9-0.9 9.4 3.1 0 6-0.3 8.5-0.9h1.9c5.7-0.6 9.8-2.2 12.3-4.7 2.5-1.3 4.7-0.9 6.6 0.9 4.4 3.2 7.6 6 9.4 8.5 2.5 1.9 2.8 3.8 0.9 5.7-3.2 6.9-4.7 14.8-4.7 23.6-1.3 33.4-0.9 66.1 0.9 98.2 0 3.8-0.6 6.6-1.9 8.5-2.5 5-5.7 9.1-9.4 12.3-2.5 1.9-4.1 1.3-4.7-1.9-1.9-9.4-5-17.9-9.4-25.5-18.3 0-41.9 0.9-70.8 2.8 0.1 5.1 0.1 9.8 0.1 14.2z m47.2-131.3c-4.4 0.6-9.1 0.9-14.2 0.9-1.9 30.9-11 51-27.4 60.4-1.9 1.3-3.5 1.9-4.7 1.9v44.4c26.4-1.3 49.1-2.8 68-4.7 0.6-0.6 2.5 1.3 5.7 5.7 3.8 0.6 5.3 0 4.7-1.9v-56.7c-3.2 0.6-8.2 0.9-15.1 0.9-11.3 0.6-17-5.3-17-17.9v-33z m-27.3 1.9c-6.9 0.6-13.2 1.6-18.9 2.8v55.7l0.9-0.9c10.7-14.4 16.7-33.6 18-57.6zM551 587c0 0.6 0.6 1.9 1.9 3.8 1.3 1.3 1.9 2.2 1.9 2.8 0.6 1.9 0.6 2.8 0 2.8 0 0.6-0.6 0.9-1.9 0.9-16.4 0-32.7 1.3-49.1 3.8-1.9 1.3-3.5 0.9-4.7-0.9-1.9-0.6-3.5-2.5-4.7-5.7-0.6-1.3-0.6-1.9 0-1.9 0-0.6 0.6-0.9 1.9-0.9 12.6 0 24.6-0.9 35.9-2.8 1.9 0 6-0.6 12.3-1.9 0.6-0.6 1.3-0.9 1.9-0.9 1.3-0.6 2.5-0.6 3.8 0-0.8-0.7-0.4-0.4 0.8 0.9z m-17.9-88.8c0-10.7-1.3-18.3-3.8-22.7-7.6 0-14.8 0.6-21.7 1.9 1.3 0.6 2.8 1.6 4.7 2.8 2.5 1.3 4.1 2.2 4.7 2.8 1.9 1.9 2.8 4.1 2.8 6.6-0.6 7.6-0.9 15.1-0.9 22.7 5-0.6 9.4-0.9 13.2-0.9 0.7-4.3 1-8.8 1-13.2z m25.5 20.8c-4.4 0-9.1 0.3-14.2 0.9-0.6 10.7-0.9 20.5-0.9 29.3 0.6 8.2 3.1 12 7.6 11.3 3.1 0 6-0.9 8.5-2.8 1.9 0 3.5 0.9 4.7 2.8v-36.8c-0.1-3.1-1.9-4.7-5.7-4.7zM674.4 158.3l-17.9-32.6c1.9-1.1 48.1-26 93.5-3.3 9.2 4.6 12.9 15.8 8.3 25s-15.8 12.9-25 8.3c-27.6-13.9-58.6 2.4-58.9 2.6z" fill="#E22B60" p-id="3783"></path><path d="M797.5 213.4c-59.5 0-135.3-37.6-138.5-39.2-9.2-4.6-12.9-15.8-8.3-25s15.8-12.9 25-8.3c1.1 0.5 71.3 35.2 121.8 35.2 10.3 0 18.6 8.3 18.6 18.6s-8.3 18.7-18.6 18.7zM866.1 622c-2.8 0-5.7-0.6-8.4-2-9.2-4.6-12.8-15.8-8.2-25l1-1.9c4.6-9.2 15.8-12.8 25-8.2 9.2 4.6 12.8 15.8 8.2 25l-1 1.9c-3.2 6.5-9.8 10.2-16.6 10.2z" fill="#E22B60" p-id="3784"></path></svg>