<?xml version="1.0" standalone="no"?><!DOCTYPE svg PUBLIC "-//W3C//DTD SVG 1.1//EN" "http://www.w3.org/Graphics/SVG/1.1/DTD/svg11.dtd"><svg t="1560592654582" class="icon" style="" viewBox="0 0 1770 1024" version="1.1" xmlns="http://www.w3.org/2000/svg" p-id="5742" xmlns:xlink="http://www.w3.org/1999/xlink" width="110.625" height="64"><defs><style type="text/css"></style></defs><path d="M905.65789825 188.04144987L327.93555714 521.62934742l475.95319823 273.73264005 577.77302256-333.5372161-476.00387968-273.7833215z" fill="#7357FF" p-id="5743"></path><path d="M328.08760289 521.3252566L249.02392576 568.15528069l475.95319826 273.73264006 79.0636764-46.83002408L328.08760289 521.3252566zM984.62021105 141.21142578l-79.06367641 46.83002409 475.95319753 273.73264006 79.06367712-46.83002408L984.62021105 141.21142578zM1381.20564136 462.07818074c-86.15913508-32.33501664-219.55374865-13.12659771-346.20767725 58.13207552-131.06324856 73.74208329-217.93192957 182.45463908-230.95716368 275.05036761z" fill="#543F99" p-id="5744"></path><path d="M905.60721608 188.0921313c-86.15913508-32.33501664-219.50306649-13.12659771-346.15699509 58.13207552-131.11393072 73.74208329-217.93192957 182.45463908-230.95716368 275.10104978zM804.04080042 795.0072145c86.15913508 32.33501664 219.55374865 13.12659771 346.20767725-58.13207479 131.06324856-73.74208329 217.93192957-182.45463908 230.95716369-275.10104978z" fill="#7357FF" p-id="5745"></path><path d="M559.45022099 246.22420682c-131.06324856 73.74208329-217.93192957 182.45463908-230.95716369 275.05036762l-0.55750017 0.35477298 241.54966918 138.91893459h0.40545441S652.40072323 530.14389724 653.71845078 480.77978166c1.26704612-45.6136594-55.09116456-137.19575192-36.74433661-179.00827372 24.98614932-56.96639301 213.16783664-128.07301975 213.16783592-128.07301975C750.77418215 169.28916751 653.31299637 193.41372512 559.45022099 246.22420682z" fill="#FFD400" p-id="5746"></path><path d="M569.48522631 660.54828201l-83.72640646 43.73843169L249.02392576 568.15528069l78.91163138-46.52593327 241.54966917 138.91893459zM1159.42189127 393.86041847l-113.7807395 30.25706098-267.60013742-153.92076077 108.35778282-33.39933483 273.0230941 157.06303462zM859.6387837 384.53495909l-26.10114967 17.13046327-123.05551745-70.75185378 24.12455762-18.24546433 125.0321095 71.86685484z" fill="#FF9700" p-id="5747"></path><path d="M1150.24847767 736.87513971q27.21615002-15.20455338 51.84752638-32.58842601c-1.11500036 0-107.69891903 7.95704966-151.48803216 31.16933413-21.08364738 11.25136928-107.24278246 61.62912232-115.14914923 72.72844656 67.0013976-6.63932138 141.95984558-30.3584246 214.78965501-71.30935468z" fill="#FFD400" p-id="5748"></path></svg>