<?xml version="1.0" standalone="no"?><!DOCTYPE svg PUBLIC "-//W3C//DTD SVG 1.1//EN" "http://www.w3.org/Graphics/SVG/1.1/DTD/svg11.dtd"><svg t="1560592639504" class="icon" style="" viewBox="0 0 1024 1024" version="1.1" xmlns="http://www.w3.org/2000/svg" p-id="4778" xmlns:xlink="http://www.w3.org/1999/xlink" width="64" height="64"><defs><style type="text/css"></style></defs><path d="M569.22 257.51H454.78a13.49 13.49 0 0 1-13.5-13.5V154.5a13.49 13.49 0 0 1 13.5-13.5h114.44a13.49 13.49 0 0 1 13.5 13.5V244a13.49 13.49 0 0 1-13.5 13.51z m-100.94-27h87.44V168h-87.44z" fill="#274359" p-id="4779"></path><path d="M601.31 169H422.69a13.5 13.5 0 0 1-13.5-13.5V90a13.5 13.5 0 0 1 13.5-13.5h178.62a13.5 13.5 0 0 1 13.5 13.5v65.5a13.5 13.5 0 0 1-13.5 13.5z m-165.12-27h151.62v-38.5H436.19zM700.24 687.46H323.76a13.5 13.5 0 0 1-13.5-13.5V439.74a13.5 13.5 0 0 1 13.5-13.5h376.48a13.5 13.5 0 0 1 13.5 13.5V674a13.5 13.5 0 0 1-13.5 13.46z m-363-27h349.5V453.24H337.26z" fill="#274359" p-id="4780"></path><path d="M592.37 949.5c-11.07 0-20.07-8.7-20.07-19.38v-19H451.7v19c0 10.68-9 19.38-20.07 19.38-66.92 0-121.37-49.41-121.37-110.15V346.54c0-60.73 54.45-110.14 121.37-110.14h160.74c66.92 0 121.37 49.41 121.37 110.14v492.81c0 60.74-54.45 110.15-121.37 110.15zM431.63 263.4c-52 0-94.37 37.3-94.37 83.14v492.81c0 43.8 38.63 79.79 87.44 82.93v-18.73c0-10.68 9-19.38 20.07-19.38h134.46c11.07 0 20.07 8.7 20.07 19.38v18.73c48.81-3.14 87.44-39.13 87.44-82.93V346.54c0-45.84-42.34-83.14-94.37-83.14z" fill="#274359" p-id="4781"></path><path d="M368 473h294v165H368z" fill="#FFDD00" p-id="4782"></path></svg>